<svg xmlns="http://www.w3.org/2000/svg" xmlns:xlink="http://www.w3.org/1999/xlink" width="500" zoomAndPan="magnify" viewBox="0 0 375 374.999991" height="500" preserveAspectRatio="xMidYMid meet" version="1.0"><defs><clipPath id="738c8cdc70"><path d="M 20.730469 20.730469 L 354.480469 20.730469 L 354.480469 354.480469 L 20.730469 354.480469 Z M 20.730469 20.730469 " clip-rule="nonzero"/></clipPath></defs><g clip-path="url(#738c8cdc70)"><path fill="#059669" d="M 354.257812 187.496094 C 354.257812 190.226562 354.191406 192.953125 354.058594 195.679688 C 353.925781 198.40625 353.722656 201.125 353.457031 203.839844 C 353.1875 206.558594 352.855469 209.265625 352.453125 211.964844 C 352.054688 214.664062 351.585938 217.351562 351.054688 220.03125 C 350.523438 222.707031 349.925781 225.367188 349.261719 228.015625 C 348.597656 230.664062 347.871094 233.292969 347.078125 235.90625 C 346.285156 238.515625 345.429688 241.105469 344.511719 243.675781 C 343.589844 246.246094 342.609375 248.792969 341.566406 251.3125 C 340.519531 253.835938 339.414062 256.328125 338.25 258.796875 C 337.082031 261.261719 335.855469 263.699219 334.566406 266.109375 C 333.28125 268.515625 331.9375 270.886719 330.535156 273.230469 C 329.128906 275.570312 327.671875 277.875 326.15625 280.144531 C 324.636719 282.414062 323.066406 284.644531 321.441406 286.835938 C 319.816406 289.027344 318.136719 291.179688 316.40625 293.289062 C 314.675781 295.398438 312.890625 297.464844 311.058594 299.488281 C 309.226562 301.507812 307.34375 303.484375 305.414062 305.414062 C 303.484375 307.34375 301.507812 309.226562 299.488281 311.058594 C 297.464844 312.890625 295.398438 314.675781 293.289062 316.40625 C 291.179688 318.136719 289.027344 319.816406 286.835938 321.441406 C 284.644531 323.066406 282.414062 324.636719 280.144531 326.15625 C 277.875 327.671875 275.570312 329.128906 273.230469 330.535156 C 270.886719 331.9375 268.515625 333.28125 266.109375 334.566406 C 263.699219 335.855469 261.261719 337.082031 258.796875 338.25 C 256.328125 339.414062 253.835938 340.519531 251.3125 341.566406 C 248.792969 342.609375 246.246094 343.589844 243.675781 344.511719 C 241.105469 345.429688 238.515625 346.285156 235.90625 347.078125 C 233.292969 347.871094 230.664062 348.597656 228.015625 349.261719 C 225.367188 349.925781 222.707031 350.523438 220.03125 351.054688 C 217.351562 351.585938 214.664062 352.054688 211.964844 352.453125 C 209.265625 352.855469 206.558594 353.1875 203.839844 353.457031 C 201.125 353.722656 198.40625 353.925781 195.679688 354.058594 C 192.953125 354.191406 190.226562 354.257812 187.496094 354.257812 C 184.765625 354.257812 182.039062 354.191406 179.3125 354.058594 C 176.585938 353.925781 173.867188 353.722656 171.148438 353.457031 C 168.433594 353.1875 165.726562 352.855469 163.027344 352.453125 C 160.328125 352.054688 157.636719 351.585938 154.960938 351.054688 C 152.285156 350.523438 149.621094 349.925781 146.976562 349.261719 C 144.328125 348.597656 141.699219 347.871094 139.085938 347.078125 C 136.476562 346.285156 133.882812 345.429688 131.316406 344.511719 C 128.746094 343.589844 126.199219 342.609375 123.679688 341.566406 C 121.15625 340.519531 118.664062 339.414062 116.195312 338.25 C 113.726562 337.082031 111.289062 335.855469 108.882812 334.566406 C 106.476562 333.28125 104.101562 331.9375 101.761719 330.535156 C 99.421875 329.128906 97.117188 327.671875 94.847656 326.15625 C 92.578125 324.636719 90.347656 323.066406 88.15625 321.441406 C 85.960938 319.816406 83.8125 318.136719 81.703125 316.40625 C 79.59375 314.675781 77.527344 312.890625 75.503906 311.058594 C 73.480469 309.226562 71.503906 307.34375 69.574219 305.414062 C 67.644531 303.484375 65.765625 301.507812 63.933594 299.488281 C 62.097656 297.464844 60.316406 295.398438 58.585938 293.289062 C 56.855469 291.179688 55.175781 289.027344 53.550781 286.835938 C 51.925781 284.644531 50.351562 282.414062 48.835938 280.144531 C 47.320312 277.875 45.859375 275.570312 44.457031 273.230469 C 43.054688 270.886719 41.710938 268.515625 40.421875 266.109375 C 39.136719 263.699219 37.910156 261.261719 36.742188 258.796875 C 35.578125 256.328125 34.46875 253.835938 33.425781 251.3125 C 32.382812 248.792969 31.398438 246.246094 30.480469 243.675781 C 29.5625 241.105469 28.703125 238.515625 27.914062 235.90625 C 27.121094 233.292969 26.394531 230.664062 25.730469 228.015625 C 25.066406 225.367188 24.46875 222.707031 23.9375 220.03125 C 23.402344 217.351562 22.9375 214.664062 22.535156 211.964844 C 22.136719 209.265625 21.800781 206.558594 21.535156 203.839844 C 21.265625 201.125 21.066406 198.40625 20.933594 195.679688 C 20.800781 192.953125 20.730469 190.226562 20.730469 187.496094 C 20.730469 184.765625 20.800781 182.039062 20.933594 179.3125 C 21.066406 176.585938 21.265625 173.867188 21.535156 171.148438 C 21.800781 168.433594 22.136719 165.726562 22.535156 163.027344 C 22.9375 160.328125 23.402344 157.636719 23.9375 154.960938 C 24.46875 152.285156 25.066406 149.621094 25.730469 146.976562 C 26.394531 144.328125 27.121094 141.699219 27.914062 139.085938 C 28.703125 136.476562 29.5625 133.882812 30.480469 131.316406 C 31.398438 128.746094 32.382812 126.199219 33.425781 123.679688 C 34.46875 121.15625 35.578125 118.664062 36.742188 116.195312 C 37.910156 113.726562 39.136719 111.289062 40.421875 108.882812 C 41.710938 106.476562 43.054688 104.101562 44.457031 101.761719 C 45.859375 99.421875 47.320312 97.117188 48.835938 94.847656 C 50.351562 92.578125 51.925781 90.347656 53.550781 88.15625 C 55.175781 85.960938 56.855469 83.8125 58.585938 81.703125 C 60.316406 79.59375 62.097656 77.527344 63.933594 75.503906 C 65.765625 73.480469 67.644531 71.503906 69.574219 69.574219 C 71.503906 67.644531 73.480469 65.765625 75.503906 63.933594 C 77.527344 62.097656 79.59375 60.316406 81.703125 58.585938 C 83.8125 56.855469 85.960938 55.175781 88.15625 53.550781 C 90.347656 51.925781 92.578125 50.351562 94.847656 48.835938 C 97.117188 47.320312 99.421875 45.859375 101.761719 44.457031 C 104.101562 43.054688 106.476562 41.710938 108.882812 40.421875 C 111.289062 39.136719 113.726562 37.910156 116.195312 36.742188 C 118.664062 35.578125 121.15625 34.46875 123.679688 33.425781 C 126.199219 32.382812 128.746094 31.398438 131.316406 30.480469 C 133.882812 29.5625 136.476562 28.703125 139.085938 27.914062 C 141.699219 27.121094 144.328125 26.394531 146.976562 25.730469 C 149.621094 25.066406 152.285156 24.46875 154.960938 23.9375 C 157.636719 23.402344 160.328125 22.9375 163.027344 22.535156 C 165.726562 22.136719 168.433594 21.800781 171.148438 21.535156 C 173.867188 21.265625 176.585938 21.066406 179.3125 20.933594 C 182.039062 20.800781 184.765625 20.730469 187.496094 20.730469 C 190.226562 20.730469 192.953125 20.800781 195.679688 20.933594 C 198.40625 21.066406 201.125 21.265625 203.839844 21.535156 C 206.558594 21.800781 209.265625 22.136719 211.964844 22.535156 C 214.664062 22.9375 217.351562 23.402344 220.03125 23.9375 C 222.707031 24.46875 225.367188 25.066406 228.015625 25.730469 C 230.664062 26.394531 233.292969 27.121094 235.90625 27.914062 C 238.515625 28.703125 241.105469 29.5625 243.675781 30.480469 C 246.246094 31.398438 248.792969 32.382812 251.3125 33.425781 C 253.835938 34.46875 256.328125 35.578125 258.796875 36.742188 C 261.261719 37.910156 263.699219 39.136719 266.109375 40.421875 C 268.515625 41.710938 270.886719 43.054688 273.230469 44.457031 C 275.570312 45.859375 277.875 47.320312 280.144531 48.835938 C 282.414062 50.351562 284.644531 51.925781 286.835938 53.550781 C 289.027344 55.175781 291.179688 56.855469 293.289062 58.585938 C 295.398438 60.316406 297.464844 62.097656 299.488281 63.933594 C 301.507812 65.765625 303.484375 67.644531 305.414062 69.574219 C 307.34375 71.503906 309.226562 73.480469 311.058594 75.503906 C 312.890625 77.527344 314.675781 79.59375 316.40625 81.703125 C 318.136719 83.8125 319.816406 85.960938 321.441406 88.15625 C 323.066406 90.347656 324.636719 92.578125 326.15625 94.847656 C 327.671875 97.117188 329.128906 99.421875 330.535156 101.761719 C 331.9375 104.101562 333.28125 106.476562 334.566406 108.882812 C 335.855469 111.289062 337.082031 113.726562 338.25 116.195312 C 339.414062 118.664062 340.519531 121.15625 341.566406 123.679688 C 342.609375 126.199219 343.589844 128.746094 344.511719 131.316406 C 345.429688 133.882812 346.285156 136.476562 347.078125 139.085938 C 347.871094 141.699219 348.597656 144.328125 349.261719 146.976562 C 349.925781 149.621094 350.523438 152.285156 351.054688 154.960938 C 351.585938 157.636719 352.054688 160.328125 352.453125 163.027344 C 352.855469 165.726562 353.1875 168.433594 353.457031 171.148438 C 353.722656 173.867188 353.925781 176.585938 354.058594 179.3125 C 354.191406 182.039062 354.257812 184.765625 354.257812 187.496094 Z M 354.257812 187.496094 " fill-opacity="1" fill-rule="nonzero"/></g><path fill="#ffffff" d="M 148.683594 224.316406 C 171.144531 187.070312 199.578125 156.359375 231.140625 128.496094 C 243.148438 118.246094 255.707031 108.71875 268.816406 99.917969 C 277.0625 94.089844 284.597656 95.226562 288.71875 101.199219 C 292.84375 107.171875 290.710938 114.988281 283.601562 120.25 C 233.699219 157.070312 200.574219 207.113281 172.566406 260.996094 C 171.144531 263.554688 169.867188 266.113281 168.304688 268.53125 C 158.066406 283.316406 140.152344 282.179688 131.339844 266.398438 C 122.523438 250.617188 114.421875 235.832031 105.324219 220.90625 C 101.058594 213.796875 95.511719 207.542969 90.253906 201.144531 C 84.992188 194.746094 82.574219 186.074219 87.265625 181.097656 C 91.957031 176.121094 104.753906 180.386719 108.308594 181.523438 C 130.058594 189.34375 142.429688 210.527344 148.683594 224.316406 Z M 148.683594 224.316406 " fill-opacity="1" fill-rule="nonzero"/></svg>