<svg xmlns="http://www.w3.org/2000/svg" xmlns:xlink="http://www.w3.org/1999/xlink" width="1000" zoomAndPan="magnify" viewBox="0 0 375 374.999991" height="1000" preserveAspectRatio="xMidYMid meet" version="1.0"><defs><g/><clipPath id="8c8d784649"><path d="M 119.367188 130.4375 L 255.867188 130.4375 L 255.867188 177 L 119.367188 177 Z M 119.367188 130.4375 " clip-rule="nonzero"/></clipPath><clipPath id="79e03f6edd"><path d="M 126 199 L 249 199 L 249 244.4375 L 126 244.4375 Z M 126 199 " clip-rule="nonzero"/></clipPath><clipPath id="15004bdd41"><path d="M 189.480469 130.4375 L 255.480469 130.4375 L 255.480469 177 L 189.480469 177 Z M 189.480469 130.4375 " clip-rule="nonzero"/></clipPath><clipPath id="c063448f91"><path d="M 189.480469 199 L 249 199 L 249 244.4375 L 189.480469 244.4375 Z M 189.480469 199 " clip-rule="nonzero"/></clipPath><clipPath id="05c40858e2"><rect x="0" width="254" y="0" height="13"/></clipPath><clipPath id="8908839900"><rect x="0" width="53" y="0" height="13"/></clipPath></defs><g clip-path="url(#8c8d784649)"><path fill="#1e3a8a" d="M 145.359375 176.492188 L 154.035156 176.492188 L 154.035156 159.917969 L 187.5 143.773438 L 221.078125 159.917969 L 221.078125 176.492188 L 255.632812 176.492188 L 233.105469 174.328125 L 233.105469 152.339844 L 232.128906 151.902344 L 188.257812 130.785156 L 187.5 130.460938 L 186.742188 130.785156 L 142.984375 151.902344 L 142.007812 152.339844 L 142.007812 174.328125 L 119.367188 176.492188 Z M 145.359375 154.503906 L 187.5 134.246094 L 229.640625 154.503906 L 229.640625 174.003906 L 224.4375 173.464844 L 224.4375 157.757812 L 223.464844 157.324219 L 188.257812 140.3125 L 187.5 139.992188 L 186.742188 140.3125 L 151.535156 157.316406 L 150.5625 157.75 L 150.5625 173.457031 L 145.359375 173.996094 Z M 145.359375 154.503906 " fill-opacity="1" fill-rule="nonzero"/></g><g clip-path="url(#79e03f6edd)"><path fill="#1e3a8a" d="M 225.734375 199.570312 L 216.527344 199.570312 C 215.230469 202.816406 213.605469 205.957031 211.757812 208.890625 C 206.015625 218.3125 197.679688 226.109375 187.492188 231.3125 C 177.308594 226.109375 169.078125 218.3125 163.222656 208.890625 C 161.375 205.964844 159.863281 202.824219 158.453125 199.570312 L 126.40625 199.570312 L 146.34375 201.632812 C 148.40625 207.160156 150.996094 212.144531 154.035156 216.800781 C 162.378906 229.363281 174.179688 238.902344 186.855469 244.3125 L 187.507812 244.53125 L 188.164062 244.3125 C 200.839844 238.902344 212.753906 229.363281 220.984375 216.800781 C 224.125 212.144531 226.726562 207.160156 228.675781 201.632812 L 248.613281 199.570312 Z M 218.15625 214.945312 C 210.359375 226.753906 199.308594 235.636719 187.5 240.832031 C 175.691406 235.628906 164.640625 226.753906 156.84375 214.945312 C 154.242188 210.933594 151.972656 206.601562 150.238281 202.058594 L 156.085938 202.597656 C 157.28125 205.417969 158.6875 208.125 160.316406 210.726562 C 166.597656 220.90625 175.703125 229.25 186.753906 234.777344 L 187.507812 235.210938 L 188.265625 234.777344 C 199.316406 229.25 208.410156 220.914062 214.703125 210.726562 C 216.328125 208.125 217.738281 205.417969 218.929688 202.597656 L 224.890625 202.058594 C 223.027344 206.609375 220.757812 210.941406 218.15625 214.945312 Z M 218.15625 214.945312 " fill-opacity="1" fill-rule="nonzero"/></g><g fill="#1e3a8a" fill-opacity="1"><g transform="translate(65.94591, 195.374987)"><g><path d="M 7.6875 0.234375 C 6.445312 0.234375 5.234375 0.0234375 4.046875 -0.390625 C 2.867188 -0.816406 1.796875 -1.472656 0.828125 -2.359375 L 2.921875 -4.859375 C 3.660156 -4.265625 4.414062 -3.789062 5.1875 -3.4375 C 5.96875 -3.082031 6.820312 -2.90625 7.75 -2.90625 C 8.488281 -2.90625 9.0625 -3.039062 9.46875 -3.3125 C 9.875 -3.582031 10.078125 -3.953125 10.078125 -4.421875 L 10.078125 -4.46875 C 10.078125 -4.695312 10.035156 -4.898438 9.953125 -5.078125 C 9.867188 -5.253906 9.707031 -5.421875 9.46875 -5.578125 C 9.226562 -5.734375 8.894531 -5.882812 8.46875 -6.03125 C 8.050781 -6.1875 7.503906 -6.351562 6.828125 -6.53125 C 6.015625 -6.726562 5.273438 -6.945312 4.609375 -7.1875 C 3.953125 -7.4375 3.390625 -7.738281 2.921875 -8.09375 C 2.460938 -8.457031 2.101562 -8.910156 1.84375 -9.453125 C 1.59375 -9.992188 1.46875 -10.664062 1.46875 -11.46875 L 1.46875 -11.515625 C 1.46875 -12.242188 1.609375 -12.90625 1.890625 -13.5 C 2.171875 -14.09375 2.5625 -14.601562 3.0625 -15.03125 C 3.5625 -15.46875 4.15625 -15.800781 4.84375 -16.03125 C 5.53125 -16.257812 6.289062 -16.375 7.125 -16.375 C 8.3125 -16.375 9.398438 -16.195312 10.390625 -15.84375 C 11.378906 -15.488281 12.289062 -14.984375 13.125 -14.328125 L 11.28125 -11.640625 C 10.550781 -12.140625 9.84375 -12.53125 9.15625 -12.8125 C 8.46875 -13.09375 7.773438 -13.234375 7.078125 -13.234375 C 6.390625 -13.234375 5.867188 -13.097656 5.515625 -12.828125 C 5.171875 -12.566406 5 -12.234375 5 -11.828125 L 5 -11.78125 C 5 -11.519531 5.046875 -11.289062 5.140625 -11.09375 C 5.242188 -10.90625 5.425781 -10.734375 5.6875 -10.578125 C 5.957031 -10.429688 6.316406 -10.285156 6.765625 -10.140625 C 7.222656 -10.003906 7.796875 -9.84375 8.484375 -9.65625 C 9.296875 -9.445312 10.019531 -9.207031 10.65625 -8.9375 C 11.300781 -8.664062 11.84375 -8.34375 12.28125 -7.96875 C 12.71875 -7.59375 13.046875 -7.148438 13.265625 -6.640625 C 13.492188 -6.128906 13.609375 -5.519531 13.609375 -4.8125 L 13.609375 -4.78125 C 13.609375 -3.976562 13.460938 -3.265625 13.171875 -2.640625 C 12.878906 -2.015625 12.46875 -1.488281 11.9375 -1.0625 C 11.414062 -0.644531 10.796875 -0.320312 10.078125 -0.09375 C 9.359375 0.125 8.5625 0.234375 7.6875 0.234375 Z M 7.6875 0.234375 "/></g></g></g><g fill="#1e3a8a" fill-opacity="1"><g transform="translate(86.473291, 195.374987)"><g><path d="M 7.46875 -16.265625 L 10.75 -16.265625 L 17.671875 0 L 13.953125 0 L 12.484375 -3.625 L 5.65625 -3.625 L 4.171875 0 L 0.546875 0 Z M 11.203125 -6.75 L 9.0625 -12 L 6.921875 -6.75 Z M 11.203125 -6.75 "/></g></g></g><g fill="#1e3a8a" fill-opacity="1"><g transform="translate(110.460049, 195.374987)"><g><path d="M 1.9375 -16.140625 L 14.234375 -16.140625 L 14.234375 -12.921875 L 5.484375 -12.921875 L 5.484375 -9.484375 L 13.1875 -9.484375 L 13.1875 -6.25 L 5.484375 -6.25 L 5.484375 0 L 1.9375 0 Z M 1.9375 -16.140625 "/></g></g></g><g fill="#1e3a8a" fill-opacity="1"><g transform="translate(131.356433, 195.374987)"><g><path d="M 1.9375 -16.140625 L 14.109375 -16.140625 L 14.109375 -12.984375 L 5.46875 -12.984375 L 5.46875 -9.703125 L 13.078125 -9.703125 L 13.078125 -6.546875 L 5.46875 -6.546875 L 5.46875 -3.15625 L 14.234375 -3.15625 L 14.234375 0 L 1.9375 0 Z M 1.9375 -16.140625 "/></g></g></g><g fill="#1e3a8a" fill-opacity="1"><g transform="translate(152.575689, 195.374987)"><g/></g></g><g fill="#059669" fill-opacity="1"><g transform="translate(165.26231, 195.374987)"><g><path d="M 1.9375 -16.140625 L 5.765625 -16.140625 L 10.015625 -9.3125 L 14.25 -16.140625 L 18.078125 -16.140625 L 18.078125 0 L 14.546875 0 L 14.546875 -10.546875 L 10.015625 -3.640625 L 9.921875 -3.640625 L 5.421875 -10.46875 L 5.421875 0 L 1.9375 0 Z M 1.9375 -16.140625 "/></g></g></g><g fill="#059669" fill-opacity="1"><g transform="translate(191.047941, 195.374987)"><g><path d="M 2.09375 -16.140625 L 5.65625 -16.140625 L 5.65625 0 L 2.09375 0 Z M 2.09375 -16.140625 "/></g></g></g><g fill="#059669" fill-opacity="1"><g transform="translate(204.564317, 195.374987)"><g><path d="M 1.9375 -16.140625 L 5.21875 -16.140625 L 12.78125 -6.203125 L 12.78125 -16.140625 L 16.28125 -16.140625 L 16.28125 0 L 13.265625 0 L 5.4375 -10.265625 L 5.4375 0 L 1.9375 0 Z M 1.9375 -16.140625 "/></g></g></g><g fill="#059669" fill-opacity="1"><g transform="translate(228.551075, 195.374987)"><g><path d="M 1.9375 -16.140625 L 8.234375 -16.140625 C 9.492188 -16.140625 10.648438 -15.9375 11.703125 -15.53125 C 12.753906 -15.125 13.660156 -14.554688 14.421875 -13.828125 C 15.179688 -13.109375 15.769531 -12.257812 16.1875 -11.28125 C 16.601562 -10.3125 16.8125 -9.257812 16.8125 -8.125 L 16.8125 -8.078125 C 16.8125 -6.929688 16.601562 -5.863281 16.1875 -4.875 C 15.769531 -3.894531 15.179688 -3.046875 14.421875 -2.328125 C 13.660156 -1.609375 12.753906 -1.039062 11.703125 -0.625 C 10.648438 -0.207031 9.492188 0 8.234375 0 L 1.9375 0 Z M 5.484375 -12.9375 L 5.484375 -3.203125 L 8.234375 -3.203125 C 8.953125 -3.203125 9.609375 -3.316406 10.203125 -3.546875 C 10.804688 -3.773438 11.320312 -4.101562 11.75 -4.53125 C 12.175781 -4.96875 12.503906 -5.476562 12.734375 -6.0625 C 12.972656 -6.644531 13.09375 -7.300781 13.09375 -8.03125 L 13.09375 -8.078125 C 13.09375 -8.773438 12.972656 -9.425781 12.734375 -10.03125 C 12.503906 -10.632812 12.175781 -11.148438 11.75 -11.578125 C 11.320312 -12.003906 10.804688 -12.335938 10.203125 -12.578125 C 9.609375 -12.816406 8.953125 -12.9375 8.234375 -12.9375 Z M 5.484375 -12.9375 "/></g></g></g><g fill="#059669" fill-opacity="1"><g transform="translate(252.35333, 195.374987)"><g><path d="M 7.6875 0.234375 C 6.445312 0.234375 5.234375 0.0234375 4.046875 -0.390625 C 2.867188 -0.816406 1.796875 -1.472656 0.828125 -2.359375 L 2.921875 -4.859375 C 3.660156 -4.265625 4.414062 -3.789062 5.1875 -3.4375 C 5.96875 -3.082031 6.820312 -2.90625 7.75 -2.90625 C 8.488281 -2.90625 9.0625 -3.039062 9.46875 -3.3125 C 9.875 -3.582031 10.078125 -3.953125 10.078125 -4.421875 L 10.078125 -4.46875 C 10.078125 -4.695312 10.035156 -4.898438 9.953125 -5.078125 C 9.867188 -5.253906 9.707031 -5.421875 9.46875 -5.578125 C 9.226562 -5.734375 8.894531 -5.882812 8.46875 -6.03125 C 8.050781 -6.1875 7.503906 -6.351562 6.828125 -6.53125 C 6.015625 -6.726562 5.273438 -6.945312 4.609375 -7.1875 C 3.953125 -7.4375 3.390625 -7.738281 2.921875 -8.09375 C 2.460938 -8.457031 2.101562 -8.910156 1.84375 -9.453125 C 1.59375 -9.992188 1.46875 -10.664062 1.46875 -11.46875 L 1.46875 -11.515625 C 1.46875 -12.242188 1.609375 -12.90625 1.890625 -13.5 C 2.171875 -14.09375 2.5625 -14.601562 3.0625 -15.03125 C 3.5625 -15.46875 4.15625 -15.800781 4.84375 -16.03125 C 5.53125 -16.257812 6.289062 -16.375 7.125 -16.375 C 8.3125 -16.375 9.398438 -16.195312 10.390625 -15.84375 C 11.378906 -15.488281 12.289062 -14.984375 13.125 -14.328125 L 11.28125 -11.640625 C 10.550781 -12.140625 9.84375 -12.53125 9.15625 -12.8125 C 8.46875 -13.09375 7.773438 -13.234375 7.078125 -13.234375 C 6.390625 -13.234375 5.867188 -13.097656 5.515625 -12.828125 C 5.171875 -12.566406 5 -12.234375 5 -11.828125 L 5 -11.78125 C 5 -11.519531 5.046875 -11.289062 5.140625 -11.09375 C 5.242188 -10.90625 5.425781 -10.734375 5.6875 -10.578125 C 5.957031 -10.429688 6.316406 -10.285156 6.765625 -10.140625 C 7.222656 -10.003906 7.796875 -9.84375 8.484375 -9.65625 C 9.296875 -9.445312 10.019531 -9.207031 10.65625 -8.9375 C 11.300781 -8.664062 11.84375 -8.34375 12.28125 -7.96875 C 12.71875 -7.59375 13.046875 -7.148438 13.265625 -6.640625 C 13.492188 -6.128906 13.609375 -5.519531 13.609375 -4.8125 L 13.609375 -4.78125 C 13.609375 -3.976562 13.460938 -3.265625 13.171875 -2.640625 C 12.878906 -2.015625 12.46875 -1.488281 11.9375 -1.0625 C 11.414062 -0.644531 10.796875 -0.320312 10.078125 -0.09375 C 9.359375 0.125 8.5625 0.234375 7.6875 0.234375 Z M 7.6875 0.234375 "/></g></g></g><g fill="#059669" fill-opacity="1"><g transform="translate(272.880711, 195.374987)"><g><path d="M 1.9375 -16.140625 L 14.109375 -16.140625 L 14.109375 -12.984375 L 5.46875 -12.984375 L 5.46875 -9.703125 L 13.078125 -9.703125 L 13.078125 -6.546875 L 5.46875 -6.546875 L 5.46875 -3.15625 L 14.234375 -3.15625 L 14.234375 0 L 1.9375 0 Z M 1.9375 -16.140625 "/></g></g></g><g fill="#059669" fill-opacity="1"><g transform="translate(294.099967, 195.374987)"><g><path d="M 5.703125 -12.875 L 0.78125 -12.875 L 0.78125 -16.140625 L 14.15625 -16.140625 L 14.15625 -12.875 L 9.25 -12.875 L 9.25 0 L 5.703125 0 Z M 5.703125 -12.875 "/></g></g></g><g clip-path="url(#15004bdd41)"><path fill="#059669" d="M 145.359375 176.492188 L 154.035156 176.492188 L 154.035156 159.917969 L 187.5 143.773438 L 221.078125 159.917969 L 221.078125 176.492188 L 255.632812 176.492188 L 233.105469 174.328125 L 233.105469 152.339844 L 232.128906 151.902344 L 188.257812 130.785156 L 187.5 130.460938 L 186.742188 130.785156 L 142.984375 151.902344 L 142.007812 152.339844 L 142.007812 174.328125 L 119.367188 176.492188 Z M 145.359375 154.503906 L 187.5 134.246094 L 229.640625 154.503906 L 229.640625 174.003906 L 224.4375 173.464844 L 224.4375 157.757812 L 223.464844 157.324219 L 188.257812 140.3125 L 187.5 139.992188 L 186.742188 140.3125 L 151.535156 157.316406 L 150.5625 157.75 L 150.5625 173.457031 L 145.359375 173.996094 Z M 145.359375 154.503906 " fill-opacity="1" fill-rule="nonzero"/></g><g clip-path="url(#c063448f91)"><path fill="#059669" d="M 225.734375 199.570312 L 216.527344 199.570312 C 215.230469 202.816406 213.605469 205.957031 211.757812 208.890625 C 206.015625 218.3125 197.679688 226.109375 187.492188 231.3125 C 177.308594 226.109375 169.078125 218.3125 163.222656 208.890625 C 161.375 205.964844 159.863281 202.824219 158.453125 199.570312 L 126.40625 199.570312 L 146.34375 201.632812 C 148.40625 207.160156 150.996094 212.144531 154.035156 216.800781 C 162.378906 229.363281 174.179688 238.902344 186.855469 244.3125 L 187.507812 244.53125 L 188.164062 244.3125 C 200.839844 238.902344 212.753906 229.363281 220.984375 216.800781 C 224.125 212.144531 226.726562 207.160156 228.675781 201.632812 L 248.613281 199.570312 Z M 218.15625 214.945312 C 210.359375 226.753906 199.308594 235.636719 187.5 240.832031 C 175.691406 235.628906 164.640625 226.753906 156.84375 214.945312 C 154.242188 210.933594 151.972656 206.601562 150.238281 202.058594 L 156.085938 202.597656 C 157.28125 205.417969 158.6875 208.125 160.316406 210.726562 C 166.597656 220.90625 175.703125 229.25 186.753906 234.777344 L 187.507812 235.210938 L 188.265625 234.777344 C 199.316406 229.25 208.410156 220.914062 214.703125 210.726562 C 216.328125 208.125 217.738281 205.417969 218.929688 202.597656 L 224.890625 202.058594 C 223.027344 206.609375 220.757812 210.941406 218.15625 214.945312 Z M 218.15625 214.945312 " fill-opacity="1" fill-rule="nonzero"/></g><g transform="matrix(1, 0, 0, 1, 61, 162)"><g clip-path="url(#05c40858e2)"><g fill="#1e3a8a" fill-opacity="1"><g transform="translate(0.978653, 8.914235)"><g><path d="M 5.734375 1.203125 L 4.375 -0.0625 C 4.082031 0.0195312 3.769531 0.0625 3.4375 0.0625 C 2.875 0.0625 2.363281 -0.0664062 1.90625 -0.328125 C 1.445312 -0.597656 1.082031 -0.96875 0.8125 -1.4375 C 0.550781 -1.914062 0.421875 -2.457031 0.421875 -3.0625 C 0.421875 -3.65625 0.550781 -4.1875 0.8125 -4.65625 C 1.082031 -5.132812 1.445312 -5.503906 1.90625 -5.765625 C 2.363281 -6.035156 2.875 -6.171875 3.4375 -6.171875 C 4.007812 -6.171875 4.523438 -6.035156 4.984375 -5.765625 C 5.441406 -5.503906 5.800781 -5.132812 6.0625 -4.65625 C 6.332031 -4.1875 6.46875 -3.65625 6.46875 -3.0625 C 6.46875 -2.4375 6.328125 -1.882812 6.046875 -1.40625 C 5.773438 -0.925781 5.398438 -0.5625 4.921875 -0.3125 L 6.5625 1.203125 Z M 1.046875 -3.0625 C 1.046875 -2.539062 1.148438 -2.082031 1.359375 -1.6875 C 1.566406 -1.289062 1.851562 -0.988281 2.21875 -0.78125 C 2.582031 -0.570312 2.988281 -0.46875 3.4375 -0.46875 C 3.894531 -0.46875 4.300781 -0.570312 4.65625 -0.78125 C 5.019531 -0.988281 5.304688 -1.289062 5.515625 -1.6875 C 5.722656 -2.082031 5.828125 -2.539062 5.828125 -3.0625 C 5.828125 -3.570312 5.722656 -4.019531 5.515625 -4.40625 C 5.304688 -4.800781 5.019531 -5.101562 4.65625 -5.3125 C 4.300781 -5.53125 3.894531 -5.640625 3.4375 -5.640625 C 2.988281 -5.640625 2.582031 -5.53125 2.21875 -5.3125 C 1.851562 -5.101562 1.566406 -4.800781 1.359375 -4.40625 C 1.148438 -4.019531 1.046875 -3.570312 1.046875 -3.0625 Z M 1.046875 -3.0625 "/></g></g></g><g fill="#1e3a8a" fill-opacity="1"><g transform="translate(10.05966, 8.914235)"><g><path d="M 1.28125 -6.109375 L 1.28125 -2.265625 C 1.28125 -1.660156 1.425781 -1.210938 1.71875 -0.921875 C 2.007812 -0.628906 2.40625 -0.484375 2.90625 -0.484375 C 3.40625 -0.484375 3.796875 -0.625 4.078125 -0.90625 C 4.359375 -1.195312 4.5 -1.648438 4.5 -2.265625 L 4.5 -6.109375 L 5.109375 -6.109375 L 5.109375 -2.265625 C 5.109375 -1.492188 4.898438 -0.910156 4.484375 -0.515625 C 4.078125 -0.128906 3.546875 0.0625 2.890625 0.0625 C 2.234375 0.0625 1.695312 -0.128906 1.28125 -0.515625 C 0.875 -0.910156 0.671875 -1.492188 0.671875 -2.265625 L 0.671875 -6.109375 Z M 1.28125 -6.109375 "/></g></g></g><g fill="#1e3a8a" fill-opacity="1"><g transform="translate(18.021927, 8.914235)"><g><path d="M 3.953125 0 L 2.4375 -2.546875 L 1.3125 -2.546875 L 1.3125 0 L 0.703125 0 L 0.703125 -6.109375 L 2.53125 -6.109375 C 3.21875 -6.109375 3.734375 -5.941406 4.078125 -5.609375 C 4.429688 -5.285156 4.609375 -4.859375 4.609375 -4.328125 C 4.609375 -3.890625 4.484375 -3.515625 4.234375 -3.203125 C 3.984375 -2.890625 3.609375 -2.6875 3.109375 -2.59375 L 4.6875 0 Z M 1.3125 -3.046875 L 2.546875 -3.046875 C 3.023438 -3.046875 3.382812 -3.160156 3.625 -3.390625 C 3.863281 -3.628906 3.984375 -3.941406 3.984375 -4.328125 C 3.984375 -4.734375 3.863281 -5.046875 3.625 -5.265625 C 3.394531 -5.484375 3.03125 -5.59375 2.53125 -5.59375 L 1.3125 -5.59375 Z M 1.3125 -3.046875 "/></g></g></g><g fill="#1e3a8a" fill-opacity="1"><g transform="translate(25.337427, 8.914235)"><g><path d="M 4.234375 -1.453125 L 1.453125 -1.453125 L 0.921875 0 L 0.28125 0 L 2.5 -6.03125 L 3.203125 -6.03125 L 5.421875 0 L 4.765625 0 Z M 4.046875 -1.953125 L 2.84375 -5.265625 L 1.640625 -1.953125 Z M 4.046875 -1.953125 "/></g></g></g><g fill="#1e3a8a" fill-opacity="1"><g transform="translate(33.221031, 8.914235)"><g><path d="M 5.296875 0 L 4.6875 0 L 1.3125 -5.140625 L 1.3125 0 L 0.703125 0 L 0.703125 -6.109375 L 1.3125 -6.109375 L 4.6875 -0.984375 L 4.6875 -6.109375 L 5.296875 -6.109375 Z M 5.296875 0 "/></g></g></g><g fill="#1e3a8a" fill-opacity="1"><g transform="translate(41.412983, 8.914235)"><g/></g></g><g fill="#1e3a8a" fill-opacity="1"><g transform="translate(45.992812, 8.914235)"><g/></g></g><g fill="#059669" fill-opacity="1"><g transform="translate(50.574153, 8.914235)"><g/></g></g><g fill="#059669" fill-opacity="1"><g transform="translate(55.153982, 8.914235)"><g/></g></g><g fill="#059669" fill-opacity="1"><g transform="translate(59.733811, 8.914235)"><g/></g></g><g fill="#059669" fill-opacity="1"><g transform="translate(64.31364, 8.914235)"><g/></g></g><g fill="#059669" fill-opacity="1"><g transform="translate(68.893469, 8.914235)"><g/></g></g><g fill="#059669" fill-opacity="1"><g transform="translate(73.473299, 8.914235)"><g/></g></g><g fill="#059669" fill-opacity="1"><g transform="translate(78.053128, 8.914235)"><g/></g></g><g fill="#059669" fill-opacity="1"><g transform="translate(82.632957, 8.914235)"><g/></g></g><g fill="#059669" fill-opacity="1"><g transform="translate(87.212786, 8.914235)"><g/></g></g><g fill="#059669" fill-opacity="1"><g transform="translate(91.792615, 8.914235)"><g/></g></g><g fill="#059669" fill-opacity="1"><g transform="translate(96.372444, 8.914235)"><g/></g></g><g fill="#059669" fill-opacity="1"><g transform="translate(100.952273, 8.914235)"><g/></g></g><g fill="#059669" fill-opacity="1"><g transform="translate(105.532102, 8.914235)"><g/></g></g><g fill="#059669" fill-opacity="1"><g transform="translate(110.111931, 8.914235)"><g/></g></g><g fill="#059669" fill-opacity="1"><g transform="translate(114.691761, 8.914235)"><g/></g></g><g fill="#059669" fill-opacity="1"><g transform="translate(119.27159, 8.914235)"><g/></g></g><g fill="#059669" fill-opacity="1"><g transform="translate(123.851419, 8.914235)"><g/></g></g><g fill="#059669" fill-opacity="1"><g transform="translate(128.431248, 8.914235)"><g/></g></g><g fill="#059669" fill-opacity="1"><g transform="translate(133.011077, 8.914235)"><g/></g></g><g fill="#059669" fill-opacity="1"><g transform="translate(137.590906, 8.914235)"><g/></g></g><g fill="#059669" fill-opacity="1"><g transform="translate(142.170735, 8.914235)"><g/></g></g><g fill="#059669" fill-opacity="1"><g transform="translate(146.750564, 8.914235)"><g/></g></g><g fill="#059669" fill-opacity="1"><g transform="translate(151.330393, 8.914235)"><g/></g></g><g fill="#059669" fill-opacity="1"><g transform="translate(155.910223, 8.914235)"><g/></g></g><g fill="#059669" fill-opacity="1"><g transform="translate(160.490052, 8.914235)"><g/></g></g><g fill="#059669" fill-opacity="1"><g transform="translate(165.069881, 8.914235)"><g/></g></g><g fill="#059669" fill-opacity="1"><g transform="translate(169.64971, 8.914235)"><g/></g></g><g fill="#059669" fill-opacity="1"><g transform="translate(174.229539, 8.914235)"><g/></g></g><g fill="#059669" fill-opacity="1"><g transform="translate(178.809368, 8.914235)"><g/></g></g><g fill="#059669" fill-opacity="1"><g transform="translate(183.389197, 8.914235)"><g/></g></g><g fill="#059669" fill-opacity="1"><g transform="translate(187.969026, 8.914235)"><g/></g></g><g fill="#059669" fill-opacity="1"><g transform="translate(192.548855, 8.914235)"><g/></g></g><g fill="#059669" fill-opacity="1"><g transform="translate(197.130111, 8.914235)"><g><path d="M 4.609375 -4.34375 C 4.609375 -3.820312 4.4375 -3.398438 4.09375 -3.078125 C 3.75 -2.765625 3.234375 -2.609375 2.546875 -2.609375 L 1.3125 -2.609375 L 1.3125 0 L 0.703125 0 L 0.703125 -6.109375 L 2.546875 -6.109375 C 3.222656 -6.109375 3.734375 -5.945312 4.078125 -5.625 C 4.429688 -5.300781 4.609375 -4.875 4.609375 -4.34375 Z M 2.546875 -3.125 C 3.492188 -3.125 3.96875 -3.53125 3.96875 -4.34375 C 3.96875 -4.757812 3.851562 -5.070312 3.625 -5.28125 C 3.40625 -5.488281 3.046875 -5.59375 2.546875 -5.59375 L 1.3125 -5.59375 L 1.3125 -3.125 Z M 2.546875 -3.125 "/></g></g></g><g fill="#059669" fill-opacity="1"><g transform="translate(204.244587, 8.914235)"><g><path d="M 3.4375 0.0625 C 2.875 0.0625 2.363281 -0.0664062 1.90625 -0.328125 C 1.445312 -0.597656 1.082031 -0.96875 0.8125 -1.4375 C 0.550781 -1.914062 0.421875 -2.457031 0.421875 -3.0625 C 0.421875 -3.65625 0.550781 -4.1875 0.8125 -4.65625 C 1.082031 -5.132812 1.445312 -5.503906 1.90625 -5.765625 C 2.363281 -6.035156 2.875 -6.171875 3.4375 -6.171875 C 4.007812 -6.171875 4.523438 -6.035156 4.984375 -5.765625 C 5.441406 -5.503906 5.800781 -5.132812 6.0625 -4.65625 C 6.332031 -4.1875 6.46875 -3.65625 6.46875 -3.0625 C 6.46875 -2.457031 6.332031 -1.914062 6.0625 -1.4375 C 5.800781 -0.96875 5.441406 -0.597656 4.984375 -0.328125 C 4.523438 -0.0664062 4.007812 0.0625 3.4375 0.0625 Z M 3.4375 -0.46875 C 3.894531 -0.46875 4.300781 -0.570312 4.65625 -0.78125 C 5.019531 -0.988281 5.304688 -1.289062 5.515625 -1.6875 C 5.722656 -2.082031 5.828125 -2.539062 5.828125 -3.0625 C 5.828125 -3.570312 5.722656 -4.019531 5.515625 -4.40625 C 5.304688 -4.800781 5.019531 -5.101562 4.65625 -5.3125 C 4.300781 -5.53125 3.894531 -5.640625 3.4375 -5.640625 C 2.988281 -5.640625 2.582031 -5.53125 2.21875 -5.3125 C 1.851562 -5.101562 1.566406 -4.800781 1.359375 -4.40625 C 1.148438 -4.019531 1.046875 -3.570312 1.046875 -3.0625 C 1.046875 -2.539062 1.148438 -2.082031 1.359375 -1.6875 C 1.566406 -1.289062 1.851562 -0.988281 2.21875 -0.78125 C 2.582031 -0.570312 2.988281 -0.46875 3.4375 -0.46875 Z M 3.4375 -0.46875 "/></g></g></g><g fill="#059669" fill-opacity="1"><g transform="translate(213.316859, 8.914235)"><g><path d="M 8.109375 -6.109375 L 6.375 0 L 5.6875 0 L 4.15625 -5.203125 L 2.578125 0 L 1.921875 0.015625 L 0.234375 -6.109375 L 0.875 -6.109375 L 2.28125 -0.75 L 3.84375 -6.109375 L 4.53125 -6.109375 L 6.046875 -0.75 L 7.453125 -6.109375 Z M 8.109375 -6.109375 "/></g></g></g><g fill="#059669" fill-opacity="1"><g transform="translate(223.848737, 8.914235)"><g><path d="M 1.3125 -5.609375 L 1.3125 -3.328125 L 3.625 -3.328125 L 3.625 -2.828125 L 1.3125 -2.828125 L 1.3125 -0.5 L 3.890625 -0.5 L 3.890625 0 L 0.703125 0 L 0.703125 -6.109375 L 3.890625 -6.109375 L 3.890625 -5.609375 Z M 1.3125 -5.609375 "/></g></g></g><g fill="#059669" fill-opacity="1"><g transform="translate(230.43006, 8.914235)"><g><path d="M 3.953125 0 L 2.4375 -2.546875 L 1.3125 -2.546875 L 1.3125 0 L 0.703125 0 L 0.703125 -6.109375 L 2.53125 -6.109375 C 3.21875 -6.109375 3.734375 -5.941406 4.078125 -5.609375 C 4.429688 -5.285156 4.609375 -4.859375 4.609375 -4.328125 C 4.609375 -3.890625 4.484375 -3.515625 4.234375 -3.203125 C 3.984375 -2.890625 3.609375 -2.6875 3.109375 -2.59375 L 4.6875 0 Z M 1.3125 -3.046875 L 2.546875 -3.046875 C 3.023438 -3.046875 3.382812 -3.160156 3.625 -3.390625 C 3.863281 -3.628906 3.984375 -3.941406 3.984375 -4.328125 C 3.984375 -4.734375 3.863281 -5.046875 3.625 -5.265625 C 3.394531 -5.484375 3.03125 -5.59375 2.53125 -5.59375 L 1.3125 -5.59375 Z M 1.3125 -3.046875 "/></g></g></g><g fill="#059669" fill-opacity="1"><g transform="translate(237.745559, 8.914235)"><g><path d="M 1.3125 -5.609375 L 1.3125 -3.328125 L 3.625 -3.328125 L 3.625 -2.828125 L 1.3125 -2.828125 L 1.3125 -0.5 L 3.890625 -0.5 L 3.890625 0 L 0.703125 0 L 0.703125 -6.109375 L 3.890625 -6.109375 L 3.890625 -5.609375 Z M 1.3125 -5.609375 "/></g></g></g><g fill="#059669" fill-opacity="1"><g transform="translate(244.326883, 8.914235)"><g><path d="M 2.5 -6.109375 C 3.175781 -6.109375 3.753906 -5.984375 4.234375 -5.734375 C 4.722656 -5.492188 5.09375 -5.140625 5.34375 -4.671875 C 5.601562 -4.210938 5.734375 -3.671875 5.734375 -3.046875 C 5.734375 -2.410156 5.601562 -1.863281 5.34375 -1.40625 C 5.09375 -0.945312 4.722656 -0.597656 4.234375 -0.359375 C 3.753906 -0.117188 3.175781 0 2.5 0 L 0.703125 0 L 0.703125 -6.109375 Z M 2.5 -0.5 C 3.351562 -0.5 4.003906 -0.722656 4.453125 -1.171875 C 4.898438 -1.617188 5.125 -2.242188 5.125 -3.046875 C 5.125 -3.847656 4.898438 -4.472656 4.453125 -4.921875 C 4.003906 -5.367188 3.351562 -5.59375 2.5 -5.59375 L 1.3125 -5.59375 L 1.3125 -0.5 Z M 2.5 -0.5 "/></g></g></g></g></g><g transform="matrix(1, 0, 0, 1, 161, 162)"><g clip-path="url(#8908839900)"><g fill="#1e3a8a" fill-opacity="1"><g transform="translate(1.362692, 8.914235)"><g><path d="M 1.5625 -1.6875 C 1.625 -1.363281 1.757812 -1.109375 1.96875 -0.921875 C 2.175781 -0.742188 2.460938 -0.65625 2.828125 -0.65625 C 3.316406 -0.65625 3.675781 -0.84375 3.90625 -1.21875 C 4.132812 -1.601562 4.242188 -2.242188 4.234375 -3.140625 C 4.109375 -2.878906 3.898438 -2.671875 3.609375 -2.515625 C 3.328125 -2.367188 3.007812 -2.296875 2.65625 -2.296875 C 2.269531 -2.296875 1.921875 -2.375 1.609375 -2.53125 C 1.304688 -2.695312 1.066406 -2.929688 0.890625 -3.234375 C 0.722656 -3.546875 0.640625 -3.921875 0.640625 -4.359375 C 0.640625 -4.984375 0.816406 -5.484375 1.171875 -5.859375 C 1.535156 -6.242188 2.050781 -6.4375 2.71875 -6.4375 C 3.53125 -6.4375 4.097656 -6.171875 4.421875 -5.640625 C 4.753906 -5.109375 4.921875 -4.320312 4.921875 -3.28125 C 4.921875 -2.539062 4.851562 -1.929688 4.71875 -1.453125 C 4.59375 -0.984375 4.375 -0.617188 4.0625 -0.359375 C 3.75 -0.109375 3.320312 0.015625 2.78125 0.015625 C 2.1875 0.015625 1.722656 -0.144531 1.390625 -0.46875 C 1.066406 -0.789062 0.878906 -1.195312 0.828125 -1.6875 Z M 2.796875 -2.96875 C 3.179688 -2.96875 3.5 -3.085938 3.75 -3.328125 C 4 -3.566406 4.125 -3.894531 4.125 -4.3125 C 4.125 -4.75 4 -5.101562 3.75 -5.375 C 3.507812 -5.644531 3.171875 -5.78125 2.734375 -5.78125 C 2.328125 -5.78125 2 -5.648438 1.75 -5.390625 C 1.507812 -5.128906 1.390625 -4.789062 1.390625 -4.375 C 1.390625 -3.945312 1.507812 -3.601562 1.75 -3.34375 C 1.988281 -3.09375 2.335938 -2.96875 2.796875 -2.96875 Z M 2.796875 -2.96875 "/></g></g></g><g fill="#1e3a8a" fill-opacity="1"><g transform="translate(9.05402, 8.914235)"><g><path d="M 0.546875 -3.21875 C 0.546875 -4.21875 0.707031 -5 1.03125 -5.5625 C 1.351562 -6.125 1.925781 -6.40625 2.75 -6.40625 C 3.550781 -6.40625 4.113281 -6.125 4.4375 -5.5625 C 4.769531 -5 4.9375 -4.21875 4.9375 -3.21875 C 4.9375 -2.195312 4.769531 -1.40625 4.4375 -0.84375 C 4.113281 -0.28125 3.550781 0 2.75 0 C 1.925781 0 1.351562 -0.28125 1.03125 -0.84375 C 0.707031 -1.40625 0.546875 -2.195312 0.546875 -3.21875 Z M 4.15625 -3.21875 C 4.15625 -3.726562 4.117188 -4.160156 4.046875 -4.515625 C 3.984375 -4.867188 3.847656 -5.148438 3.640625 -5.359375 C 3.429688 -5.578125 3.132812 -5.6875 2.75 -5.6875 C 2.351562 -5.6875 2.050781 -5.578125 1.84375 -5.359375 C 1.632812 -5.148438 1.492188 -4.867188 1.421875 -4.515625 C 1.359375 -4.160156 1.328125 -3.726562 1.328125 -3.21875 C 1.328125 -2.695312 1.359375 -2.257812 1.421875 -1.90625 C 1.492188 -1.550781 1.632812 -1.265625 1.84375 -1.046875 C 2.050781 -0.828125 2.351562 -0.71875 2.75 -0.71875 C 3.132812 -0.71875 3.429688 -0.828125 3.640625 -1.046875 C 3.847656 -1.265625 3.984375 -1.550781 4.046875 -1.90625 C 4.117188 -2.257812 4.15625 -2.695312 4.15625 -3.21875 Z M 4.15625 -3.21875 "/></g></g></g><g fill="#1e3a8a" fill-opacity="1"><g transform="translate(16.727867, 8.914235)"><g/></g></g><g fill="#059669" fill-opacity="1"><g transform="translate(21.255517, 8.914235)"><g><path d="M 2.5625 -6.09375 C 3.226562 -6.09375 3.800781 -5.96875 4.28125 -5.71875 C 4.769531 -5.46875 5.144531 -5.113281 5.40625 -4.65625 C 5.664062 -4.195312 5.796875 -3.65625 5.796875 -3.03125 C 5.796875 -2.40625 5.664062 -1.863281 5.40625 -1.40625 C 5.144531 -0.945312 4.769531 -0.597656 4.28125 -0.359375 C 3.800781 -0.117188 3.226562 0 2.5625 0 L 0.671875 0 L 0.671875 -6.09375 Z M 2.5625 -0.65625 C 3.351562 -0.65625 3.953125 -0.863281 4.359375 -1.28125 C 4.773438 -1.695312 4.984375 -2.28125 4.984375 -3.03125 C 4.984375 -3.789062 4.773438 -4.378906 4.359375 -4.796875 C 3.941406 -5.222656 3.34375 -5.4375 2.5625 -5.4375 L 1.46875 -5.4375 L 1.46875 -0.65625 Z M 2.5625 -0.65625 "/></g></g></g><g fill="#059669" fill-opacity="1"><g transform="translate(29.61983, 8.914235)"><g><path d="M 4.265625 -1.359375 L 1.609375 -1.359375 L 1.125 0 L 0.28125 0 L 2.484375 -6.046875 L 3.40625 -6.046875 L 5.59375 0 L 4.765625 0 Z M 4.046875 -2 L 2.9375 -5.078125 L 1.84375 -2 Z M 4.046875 -2 "/></g></g></g><g fill="#059669" fill-opacity="1"><g transform="translate(37.695723, 8.914235)"><g><path d="M 4.9375 -6.09375 L 2.953125 -2.296875 L 2.953125 0 L 2.15625 0 L 2.15625 -2.296875 L 0.171875 -6.09375 L 1.046875 -6.09375 L 2.546875 -3 L 4.046875 -6.09375 Z M 4.9375 -6.09375 "/></g></g></g><g fill="#059669" fill-opacity="1"><g transform="translate(44.985005, 8.914235)"><g><path d="M 2.609375 0.0625 C 2.203125 0.0625 1.835938 -0.00390625 1.515625 -0.140625 C 1.203125 -0.285156 0.953125 -0.484375 0.765625 -0.734375 C 0.585938 -0.992188 0.5 -1.289062 0.5 -1.625 L 1.34375 -1.625 C 1.375 -1.34375 1.492188 -1.101562 1.703125 -0.90625 C 1.910156 -0.707031 2.210938 -0.609375 2.609375 -0.609375 C 2.984375 -0.609375 3.28125 -0.703125 3.5 -0.890625 C 3.71875 -1.078125 3.828125 -1.320312 3.828125 -1.625 C 3.828125 -1.851562 3.757812 -2.039062 3.625 -2.1875 C 3.5 -2.332031 3.335938 -2.441406 3.140625 -2.515625 C 2.953125 -2.597656 2.695312 -2.679688 2.375 -2.765625 C 1.96875 -2.867188 1.644531 -2.972656 1.40625 -3.078125 C 1.164062 -3.179688 0.957031 -3.34375 0.78125 -3.5625 C 0.613281 -3.789062 0.53125 -4.097656 0.53125 -4.484375 C 0.53125 -4.816406 0.613281 -5.109375 0.78125 -5.359375 C 0.957031 -5.617188 1.195312 -5.816406 1.5 -5.953125 C 1.800781 -6.097656 2.148438 -6.171875 2.546875 -6.171875 C 3.117188 -6.171875 3.585938 -6.023438 3.953125 -5.734375 C 4.316406 -5.453125 4.519531 -5.078125 4.5625 -4.609375 L 3.6875 -4.609375 C 3.664062 -4.835938 3.546875 -5.039062 3.328125 -5.21875 C 3.109375 -5.394531 2.820312 -5.484375 2.46875 -5.484375 C 2.132812 -5.484375 1.863281 -5.394531 1.65625 -5.21875 C 1.445312 -5.050781 1.34375 -4.8125 1.34375 -4.5 C 1.34375 -4.28125 1.40625 -4.097656 1.53125 -3.953125 C 1.65625 -3.816406 1.804688 -3.710938 1.984375 -3.640625 C 2.171875 -3.566406 2.429688 -3.484375 2.765625 -3.390625 C 3.171875 -3.285156 3.492188 -3.175781 3.734375 -3.0625 C 3.984375 -2.957031 4.191406 -2.789062 4.359375 -2.5625 C 4.535156 -2.34375 4.625 -2.039062 4.625 -1.65625 C 4.625 -1.363281 4.546875 -1.082031 4.390625 -0.8125 C 4.234375 -0.550781 4 -0.335938 3.6875 -0.171875 C 3.382812 -0.015625 3.023438 0.0625 2.609375 0.0625 Z M 2.609375 0.0625 "/></g></g></g></g></g></svg>
