<svg xmlns="http://www.w3.org/2000/svg" xmlns:xlink="http://www.w3.org/1999/xlink" width="500" zoomAndPan="magnify" viewBox="0 0 375 374.999991" height="500" preserveAspectRatio="xMidYMid meet" version="1.0"><defs><clipPath id="5447213f5b"><path d="M 115 120 L 256 120 L 256 260.4375 L 115 260.4375 Z M 115 120 " clip-rule="nonzero"/></clipPath></defs><path fill="#059669" d="M 253.554688 190.128906 C 253.554688 191.246094 253.527344 192.363281 253.472656 193.480469 C 253.417969 194.59375 253.335938 195.707031 253.226562 196.820312 C 253.117188 197.933594 252.980469 199.039062 252.816406 200.144531 C 252.652344 201.25 252.460938 202.351562 252.242188 203.449219 C 252.023438 204.542969 251.777344 205.632812 251.507812 206.71875 C 251.234375 207.800781 250.9375 208.878906 250.613281 209.945312 C 250.289062 211.015625 249.9375 212.078125 249.5625 213.128906 C 249.1875 214.179688 248.785156 215.222656 248.355469 216.253906 C 247.929688 217.285156 247.476562 218.308594 247 219.316406 C 246.519531 220.328125 246.019531 221.324219 245.492188 222.3125 C 244.964844 223.296875 244.414062 224.269531 243.839844 225.226562 C 243.265625 226.183594 242.667969 227.128906 242.046875 228.058594 C 241.425781 228.988281 240.785156 229.898438 240.117188 230.796875 C 239.453125 231.695312 238.765625 232.574219 238.058594 233.4375 C 237.347656 234.300781 236.617188 235.148438 235.867188 235.976562 C 235.117188 236.804688 234.347656 237.613281 233.558594 238.402344 C 232.769531 239.191406 231.957031 239.964844 231.132812 240.714844 C 230.304688 241.464844 229.457031 242.195312 228.59375 242.902344 C 227.730469 243.609375 226.847656 244.296875 225.953125 244.964844 C 225.054688 245.628906 224.140625 246.273438 223.210938 246.894531 C 222.285156 247.515625 221.339844 248.113281 220.382812 248.6875 C 219.421875 249.261719 218.453125 249.8125 217.464844 250.335938 C 216.480469 250.863281 215.484375 251.367188 214.472656 251.84375 C 213.460938 252.320312 212.441406 252.773438 211.410156 253.203125 C 210.378906 253.628906 209.335938 254.03125 208.28125 254.40625 C 207.230469 254.785156 206.171875 255.136719 205.101562 255.460938 C 204.03125 255.785156 202.957031 256.082031 201.871094 256.351562 C 200.789062 256.625 199.699219 256.871094 198.601562 257.085938 C 197.507812 257.304688 196.40625 257.496094 195.300781 257.660156 C 194.195312 257.824219 193.085938 257.960938 191.976562 258.070312 C 190.863281 258.179688 189.75 258.261719 188.632812 258.316406 C 187.515625 258.371094 186.402344 258.398438 185.285156 258.398438 C 184.167969 258.398438 183.050781 258.371094 181.933594 258.316406 C 180.816406 258.261719 179.703125 258.179688 178.59375 258.070312 C 177.480469 257.960938 176.371094 257.824219 175.265625 257.660156 C 174.160156 257.496094 173.0625 257.304688 171.964844 257.085938 C 170.867188 256.871094 169.777344 256.625 168.695312 256.351562 C 167.613281 256.082031 166.535156 255.785156 165.464844 255.460938 C 164.398438 255.136719 163.335938 254.785156 162.285156 254.40625 C 161.230469 254.03125 160.191406 253.628906 159.15625 253.203125 C 158.125 252.773438 157.105469 252.320312 156.09375 251.84375 C 155.085938 251.367188 154.085938 250.863281 153.101562 250.335938 C 152.117188 249.8125 151.144531 249.261719 150.1875 248.6875 C 149.226562 248.113281 148.285156 247.515625 147.355469 246.894531 C 146.425781 246.273438 145.511719 245.628906 144.613281 244.964844 C 143.71875 244.296875 142.835938 243.609375 141.972656 242.902344 C 141.109375 242.195312 140.265625 241.464844 139.4375 240.714844 C 138.609375 239.964844 137.800781 239.191406 137.007812 238.402344 C 136.21875 237.613281 135.449219 236.804688 134.699219 235.976562 C 133.949219 235.148438 133.21875 234.300781 132.511719 233.4375 C 131.800781 232.574219 131.113281 231.695312 130.449219 230.796875 C 129.78125 229.898438 129.140625 228.988281 128.519531 228.058594 C 127.898438 227.128906 127.300781 226.183594 126.726562 225.226562 C 126.152344 224.269531 125.601562 223.296875 125.074219 222.3125 C 124.546875 221.324219 124.046875 220.328125 123.566406 219.316406 C 123.089844 218.308594 122.636719 217.285156 122.210938 216.253906 C 121.78125 215.222656 121.378906 214.179688 121.003906 213.128906 C 120.628906 212.078125 120.277344 211.015625 119.953125 209.945312 C 119.628906 208.878906 119.332031 207.800781 119.058594 206.71875 C 118.789062 205.632812 118.542969 204.542969 118.324219 203.449219 C 118.105469 202.351562 117.917969 201.25 117.753906 200.144531 C 117.589844 199.039062 117.453125 197.933594 117.34375 196.820312 C 117.234375 195.707031 117.152344 194.59375 117.097656 193.480469 C 117.039062 192.363281 117.011719 191.246094 117.011719 190.128906 C 117.011719 189.011719 117.039062 187.894531 117.097656 186.777344 C 117.152344 185.664062 117.234375 184.550781 117.34375 183.4375 C 117.453125 182.324219 117.589844 181.214844 117.753906 180.113281 C 117.917969 179.007812 118.105469 177.90625 118.324219 176.808594 C 118.542969 175.714844 118.789062 174.625 119.058594 173.539062 C 119.332031 172.457031 119.628906 171.378906 119.953125 170.3125 C 120.277344 169.242188 120.628906 168.179688 121.003906 167.128906 C 121.378906 166.078125 121.78125 165.035156 122.210938 164.003906 C 122.636719 162.972656 123.089844 161.949219 123.566406 160.941406 C 124.046875 159.929688 124.546875 158.933594 125.074219 157.945312 C 125.601562 156.960938 126.152344 155.988281 126.726562 155.03125 C 127.300781 154.074219 127.898438 153.128906 128.519531 152.199219 C 129.140625 151.269531 129.78125 150.359375 130.449219 149.460938 C 131.113281 148.5625 131.800781 147.683594 132.511719 146.820312 C 133.21875 145.957031 133.949219 145.109375 134.699219 144.28125 C 135.449219 143.453125 136.21875 142.644531 137.007812 141.855469 C 137.800781 141.066406 138.609375 140.292969 139.4375 139.542969 C 140.265625 138.792969 141.109375 138.0625 141.972656 137.355469 C 142.835938 136.648438 143.71875 135.960938 144.613281 135.292969 C 145.511719 134.628906 146.425781 133.984375 147.355469 133.363281 C 148.285156 132.742188 149.226562 132.144531 150.1875 131.570312 C 151.144531 130.996094 152.117188 130.445312 153.101562 129.921875 C 154.085938 129.394531 155.085938 128.890625 156.09375 128.414062 C 157.105469 127.9375 158.125 127.484375 159.15625 127.054688 C 160.191406 126.628906 161.230469 126.226562 162.285156 125.847656 C 163.335938 125.472656 164.398438 125.121094 165.464844 124.796875 C 166.535156 124.472656 167.613281 124.175781 168.695312 123.90625 C 169.777344 123.632812 170.867188 123.386719 171.964844 123.171875 C 173.0625 122.953125 174.160156 122.761719 175.265625 122.597656 C 176.371094 122.433594 177.480469 122.296875 178.59375 122.1875 C 179.703125 122.078125 180.816406 121.996094 181.933594 121.941406 C 183.050781 121.886719 184.167969 121.859375 185.285156 121.859375 C 186.402344 121.859375 187.515625 121.886719 188.632812 121.941406 C 189.75 121.996094 190.863281 122.078125 191.976562 122.1875 C 193.085938 122.296875 194.195312 122.433594 195.300781 122.597656 C 196.40625 122.761719 197.507812 122.953125 198.601562 123.171875 C 199.699219 123.386719 200.789062 123.632812 201.871094 123.90625 C 202.957031 124.175781 204.03125 124.472656 205.101562 124.796875 C 206.171875 125.121094 207.230469 125.472656 208.28125 125.847656 C 209.335938 126.226562 210.378906 126.628906 211.410156 127.054688 C 212.441406 127.484375 213.460938 127.9375 214.472656 128.414062 C 215.484375 128.890625 216.480469 129.394531 217.464844 129.921875 C 218.453125 130.445312 219.421875 130.996094 220.382812 131.570312 C 221.339844 132.144531 222.285156 132.742188 223.210938 133.363281 C 224.140625 133.984375 225.054688 134.628906 225.953125 135.292969 C 226.847656 135.960938 227.730469 136.648438 228.59375 137.355469 C 229.457031 138.0625 230.304688 138.792969 231.132812 139.542969 C 231.957031 140.292969 232.769531 141.066406 233.558594 141.855469 C 234.347656 142.644531 235.117188 143.453125 235.867188 144.28125 C 236.617188 145.109375 237.347656 145.957031 238.058594 146.820312 C 238.765625 147.683594 239.453125 148.5625 240.117188 149.460938 C 240.785156 150.359375 241.425781 151.269531 242.046875 152.199219 C 242.667969 153.128906 243.265625 154.074219 243.839844 155.03125 C 244.414062 155.988281 244.964844 156.960938 245.492188 157.945312 C 246.019531 158.933594 246.519531 159.929688 247 160.941406 C 247.476562 161.949219 247.929688 162.972656 248.355469 164.003906 C 248.785156 165.035156 249.1875 166.078125 249.5625 167.128906 C 249.9375 168.179688 250.289062 169.242188 250.613281 170.3125 C 250.9375 171.378906 251.234375 172.457031 251.507812 173.539062 C 251.777344 174.625 252.023438 175.714844 252.242188 176.808594 C 252.460938 177.90625 252.652344 179.007812 252.816406 180.113281 C 252.980469 181.214844 253.117188 182.324219 253.226562 183.4375 C 253.335938 184.550781 253.417969 185.664062 253.472656 186.777344 C 253.527344 187.894531 253.554688 189.011719 253.554688 190.128906 Z M 253.554688 190.128906 " fill-opacity="1" fill-rule="nonzero"/><g clip-path="url(#5447213f5b)"><path fill="#059669" d="M 185.285156 260.015625 C 183.859375 260.015625 182.4375 259.96875 181.015625 259.878906 C 179.597656 259.792969 178.179688 259.660156 176.765625 259.484375 C 175.355469 259.308594 173.949219 259.089844 172.550781 258.828125 C 171.148438 258.566406 169.761719 258.261719 168.378906 257.914062 C 167 257.566406 165.628906 257.175781 164.273438 256.746094 C 162.917969 256.316406 161.574219 255.84375 160.246094 255.328125 C 158.917969 254.816406 157.609375 254.261719 156.316406 253.667969 C 155.019531 253.074219 153.746094 252.441406 152.492188 251.769531 C 151.238281 251.097656 150.003906 250.390625 148.792969 249.640625 C 147.582031 248.894531 146.394531 248.109375 145.230469 247.289062 C 144.066406 246.46875 142.929688 245.617188 141.816406 244.726562 C 140.707031 243.835938 139.625 242.914062 138.570312 241.957031 C 137.515625 241 136.488281 240.011719 135.496094 238.992188 C 134.5 237.976562 133.539062 236.925781 132.609375 235.847656 C 131.679688 234.769531 130.785156 233.664062 129.921875 232.53125 C 129.0625 231.398438 128.234375 230.242188 127.441406 229.058594 C 126.652344 227.875 125.898438 226.667969 125.179688 225.4375 C 124.464844 224.207031 123.785156 222.957031 123.144531 221.6875 C 122.503906 220.414062 121.902344 219.125 121.34375 217.816406 C 120.78125 216.507812 120.261719 215.183594 119.78125 213.84375 C 119.300781 212.503906 118.859375 211.152344 118.464844 209.785156 C 118.066406 208.417969 117.710938 207.039062 117.398438 205.648438 C 117.085938 204.261719 116.816406 202.863281 116.589844 201.460938 C 116.363281 200.054688 116.179688 198.644531 116.039062 197.226562 C 115.894531 195.808594 115.800781 194.390625 115.746094 192.96875 C 115.691406 191.546875 115.683594 190.121094 115.714844 188.699219 C 115.75 187.277344 115.824219 185.855469 115.945312 184.4375 C 116.066406 183.019531 116.230469 181.605469 116.4375 180.195312 C 116.644531 178.789062 116.894531 177.386719 117.1875 175.996094 C 117.480469 174.601562 117.816406 173.21875 118.195312 171.847656 C 118.574219 170.472656 118.992188 169.113281 119.453125 167.769531 C 119.914062 166.421875 120.417969 165.089844 120.960938 163.773438 C 121.503906 162.457031 122.085938 161.160156 122.707031 159.878906 C 123.328125 158.597656 123.992188 157.339844 124.691406 156.097656 C 125.390625 154.859375 126.125 153.640625 126.902344 152.449219 C 127.675781 151.253906 128.484375 150.082031 129.332031 148.9375 C 130.175781 147.792969 131.058594 146.675781 131.972656 145.585938 C 132.886719 144.492188 133.832031 143.433594 134.8125 142.398438 C 135.792969 141.367188 136.800781 140.363281 137.84375 139.394531 C 138.882812 138.421875 139.953125 137.484375 141.050781 136.578125 C 142.148438 135.671875 143.277344 134.800781 144.425781 133.964844 C 145.578125 133.128906 146.753906 132.328125 147.957031 131.5625 C 149.15625 130.800781 150.378906 130.070312 151.625 129.382812 C 152.871094 128.691406 154.136719 128.042969 155.421875 127.429688 C 156.707031 126.820312 158.011719 126.246094 159.332031 125.714844 C 160.652344 125.183594 161.984375 124.691406 163.335938 124.242188 C 164.6875 123.792969 166.050781 123.382812 167.425781 123.015625 C 168.800781 122.648438 170.1875 122.324219 171.582031 122.042969 C 172.976562 121.761719 174.378906 121.523438 175.789062 121.328125 C 177.199219 121.132812 178.613281 120.980469 180.035156 120.871094 C 181.453125 120.761719 182.875 120.695312 184.296875 120.671875 C 185.722656 120.652344 187.144531 120.671875 188.566406 120.738281 C 189.988281 120.804688 191.40625 120.914062 192.820312 121.066406 C 194.238281 121.21875 195.648438 121.414062 197.050781 121.652344 C 198.453125 121.890625 199.847656 122.171875 201.234375 122.496094 C 202.621094 122.820312 203.996094 123.183594 205.359375 123.59375 C 206.722656 124 208.074219 124.453125 209.410156 124.941406 C 210.746094 125.433594 212.066406 125.964844 213.367188 126.539062 C 214.671875 127.109375 215.957031 127.71875 217.222656 128.371094 C 218.488281 129.023438 219.734375 129.710938 220.957031 130.4375 C 222.179688 131.164062 223.382812 131.929688 224.558594 132.730469 C 225.734375 133.53125 226.886719 134.367188 228.011719 135.238281 C 229.140625 136.109375 230.238281 137.011719 231.308594 137.953125 C 232.378906 138.890625 233.417969 139.859375 234.429688 140.863281 C 235.441406 141.867188 236.417969 142.898438 237.367188 143.960938 C 238.316406 145.023438 239.230469 146.113281 240.109375 147.230469 C 240.992188 148.347656 241.835938 149.492188 242.648438 150.664062 C 243.457031 151.832031 244.230469 153.027344 244.96875 154.246094 C 245.707031 155.460938 246.40625 156.703125 247.066406 157.960938 C 247.730469 159.222656 248.351562 160.503906 248.933594 161.800781 C 249.515625 163.097656 250.058594 164.414062 250.5625 165.746094 C 251.066406 167.078125 251.527344 168.425781 251.945312 169.785156 C 252.367188 171.144531 252.742188 172.515625 253.078125 173.898438 C 253.414062 175.285156 253.710938 176.675781 253.960938 178.078125 C 254.210938 179.476562 254.417969 180.886719 254.582031 182.300781 C 254.746094 183.714844 254.867188 185.132812 254.945312 186.554688 C 255.023438 187.972656 255.054688 189.398438 255.046875 190.820312 C 255.035156 192.242188 254.984375 193.664062 254.886719 195.085938 C 254.789062 196.507812 254.648438 197.921875 254.464844 199.332031 C 254.28125 200.746094 254.054688 202.148438 253.785156 203.546875 C 253.515625 204.945312 253.203125 206.332031 252.847656 207.710938 C 252.492188 209.089844 252.09375 210.457031 251.65625 211.8125 C 251.21875 213.164062 250.738281 214.503906 250.21875 215.828125 C 249.695312 217.15625 249.136719 218.460938 248.535156 219.753906 C 247.933594 221.042969 247.292969 222.3125 246.617188 223.566406 C 245.9375 224.816406 245.21875 226.046875 244.464844 227.253906 C 243.710938 228.460938 242.921875 229.644531 242.09375 230.804688 C 241.269531 231.960938 240.40625 233.09375 239.511719 234.199219 C 238.613281 235.304688 237.6875 236.382812 236.722656 237.433594 C 235.761719 238.480469 234.769531 239.5 233.742188 240.488281 C 232.71875 241.476562 231.664062 242.433594 230.582031 243.355469 C 229.5 244.28125 228.386719 245.171875 227.25 246.027344 C 226.113281 246.882812 224.949219 247.703125 223.761719 248.484375 C 222.574219 249.269531 221.363281 250.019531 220.128906 250.726562 C 218.894531 251.4375 217.640625 252.109375 216.367188 252.742188 C 215.09375 253.375 213.800781 253.96875 212.488281 254.523438 C 203.792969 258.203125 194.726562 260.035156 185.285156 260.015625 Z M 185.285156 123.476562 C 148.53125 123.476562 118.632812 153.375 118.632812 190.128906 C 118.632812 226.882812 148.53125 256.78125 185.285156 256.78125 C 222.035156 256.78125 251.9375 226.882812 251.9375 190.128906 C 251.9375 153.375 222.035156 123.476562 185.285156 123.476562 Z M 185.285156 123.476562 " fill-opacity="1" fill-rule="nonzero"/></g><path fill="#1e3a8a" d="M 149.949219 159.632812 L 220.621094 159.632812 C 221.105469 159.632812 221.582031 159.679688 222.058594 159.777344 C 222.53125 159.871094 222.992188 160.011719 223.441406 160.195312 C 223.886719 160.378906 224.3125 160.609375 224.714844 160.875 C 225.117188 161.144531 225.492188 161.449219 225.832031 161.792969 C 226.175781 162.136719 226.480469 162.507812 226.75 162.910156 C 227.019531 163.3125 227.246094 163.738281 227.429688 164.1875 C 227.617188 164.632812 227.757812 165.09375 227.851562 165.570312 C 227.945312 166.042969 227.992188 166.523438 227.992188 167.007812 L 227.992188 213.25 C 227.992188 213.734375 227.945312 214.214844 227.851562 214.6875 C 227.757812 215.164062 227.617188 215.625 227.429688 216.070312 C 227.246094 216.519531 227.019531 216.945312 226.75 217.347656 C 226.480469 217.75 226.175781 218.121094 225.832031 218.464844 C 225.492188 218.804688 225.117188 219.113281 224.714844 219.382812 C 224.3125 219.648438 223.886719 219.878906 223.441406 220.0625 C 222.992188 220.246094 222.53125 220.386719 222.058594 220.480469 C 221.582031 220.578125 221.105469 220.625 220.621094 220.625 L 149.949219 220.625 C 149.464844 220.625 148.984375 220.578125 148.507812 220.480469 C 148.035156 220.386719 147.574219 220.246094 147.125 220.0625 C 146.679688 219.878906 146.253906 219.648438 145.851562 219.382812 C 145.449219 219.113281 145.078125 218.804688 144.734375 218.464844 C 144.390625 218.121094 144.085938 217.75 143.816406 217.347656 C 143.546875 216.945312 143.320312 216.519531 143.136719 216.070312 C 142.949219 215.625 142.808594 215.164062 142.714844 214.6875 C 142.621094 214.214844 142.574219 213.734375 142.574219 213.25 L 142.574219 167.007812 C 142.574219 166.523438 142.621094 166.042969 142.714844 165.570312 C 142.808594 165.09375 142.949219 164.632812 143.136719 164.1875 C 143.320312 163.738281 143.546875 163.3125 143.816406 162.910156 C 144.085938 162.507812 144.390625 162.136719 144.734375 161.792969 C 145.078125 161.449219 145.449219 161.144531 145.851562 160.875 C 146.253906 160.609375 146.679688 160.378906 147.125 160.195312 C 147.574219 160.011719 148.035156 159.871094 148.507812 159.777344 C 148.984375 159.679688 149.464844 159.632812 149.949219 159.632812 Z M 149.949219 159.632812 " fill-opacity="1" fill-rule="nonzero"/><path fill="#059669" d="M 220.621094 222.242188 L 149.949219 222.242188 C 149.359375 222.242188 148.773438 222.183594 148.195312 222.066406 C 147.617188 221.953125 147.054688 221.78125 146.507812 221.554688 C 145.964844 221.328125 145.445312 221.050781 144.953125 220.722656 C 144.464844 220.394531 144.011719 220.023438 143.59375 219.605469 C 143.175781 219.1875 142.804688 218.734375 142.476562 218.242188 C 142.148438 217.753906 141.871094 217.234375 141.644531 216.691406 C 141.417969 216.144531 141.246094 215.582031 141.132812 215.003906 C 141.015625 214.425781 140.957031 213.839844 140.957031 213.25 L 140.957031 167.007812 C 140.957031 166.417969 141.015625 165.832031 141.132812 165.253906 C 141.246094 164.675781 141.417969 164.113281 141.644531 163.566406 C 141.871094 163.023438 142.148438 162.503906 142.476562 162.015625 C 142.804688 161.523438 143.175781 161.070312 143.59375 160.652344 C 144.011719 160.234375 144.464844 159.863281 144.953125 159.535156 C 145.445312 159.207031 145.964844 158.929688 146.507812 158.703125 C 147.054688 158.476562 147.617188 158.304688 148.195312 158.191406 C 148.773438 158.074219 149.359375 158.015625 149.949219 158.015625 L 220.621094 158.015625 C 221.210938 158.015625 221.792969 158.074219 222.371094 158.191406 C 222.953125 158.304688 223.511719 158.476562 224.058594 158.703125 C 224.605469 158.929688 225.121094 159.207031 225.613281 159.535156 C 226.101562 159.863281 226.558594 160.234375 226.972656 160.652344 C 227.390625 161.070312 227.765625 161.523438 228.09375 162.015625 C 228.421875 162.503906 228.699219 163.023438 228.921875 163.566406 C 229.148438 164.113281 229.320312 164.675781 229.4375 165.253906 C 229.550781 165.832031 229.609375 166.417969 229.609375 167.007812 L 229.609375 213.25 C 229.609375 213.839844 229.550781 214.425781 229.4375 215.003906 C 229.320312 215.582031 229.148438 216.144531 228.921875 216.691406 C 228.699219 217.234375 228.421875 217.753906 228.09375 218.242188 C 227.765625 218.734375 227.390625 219.1875 226.972656 219.605469 C 226.558594 220.023438 226.101562 220.394531 225.613281 220.722656 C 225.121094 221.050781 224.605469 221.328125 224.058594 221.554688 C 223.511719 221.78125 222.953125 221.953125 222.371094 222.066406 C 221.792969 222.183594 221.210938 222.242188 220.621094 222.242188 Z M 149.949219 161.25 C 149.570312 161.253906 149.195312 161.289062 148.824219 161.363281 C 148.453125 161.4375 148.09375 161.546875 147.746094 161.691406 C 147.398438 161.835938 147.066406 162.011719 146.75 162.222656 C 146.4375 162.433594 146.148438 162.671875 145.878906 162.9375 C 145.613281 163.207031 145.375 163.496094 145.164062 163.8125 C 144.953125 164.125 144.777344 164.457031 144.632812 164.804688 C 144.488281 165.15625 144.378906 165.515625 144.304688 165.886719 C 144.230469 166.253906 144.191406 166.628906 144.191406 167.007812 L 144.191406 213.25 C 144.191406 213.628906 144.230469 214.003906 144.304688 214.371094 C 144.378906 214.742188 144.488281 215.101562 144.632812 215.453125 C 144.777344 215.800781 144.953125 216.132812 145.164062 216.445312 C 145.375 216.761719 145.613281 217.050781 145.878906 217.320312 C 146.148438 217.585938 146.4375 217.824219 146.75 218.035156 C 147.066406 218.242188 147.398438 218.421875 147.746094 218.566406 C 148.09375 218.710938 148.453125 218.820312 148.824219 218.894531 C 149.195312 218.96875 149.570312 219.003906 149.949219 219.007812 L 220.621094 219.007812 C 220.996094 219.003906 221.371094 218.96875 221.742188 218.894531 C 222.113281 218.820312 222.472656 218.710938 222.820312 218.566406 C 223.171875 218.421875 223.5 218.242188 223.816406 218.035156 C 224.128906 217.824219 224.421875 217.585938 224.6875 217.320312 C 224.953125 217.050781 225.191406 216.761719 225.402344 216.445312 C 225.613281 216.132812 225.789062 215.800781 225.933594 215.453125 C 226.078125 215.101562 226.1875 214.742188 226.261719 214.371094 C 226.335938 214.003906 226.375 213.628906 226.375 213.25 L 226.375 167.007812 C 226.375 166.628906 226.335938 166.253906 226.261719 165.886719 C 226.1875 165.515625 226.078125 165.15625 225.933594 164.804688 C 225.789062 164.457031 225.613281 164.125 225.402344 163.8125 C 225.191406 163.496094 224.953125 163.207031 224.6875 162.9375 C 224.421875 162.671875 224.128906 162.433594 223.816406 162.222656 C 223.5 162.011719 223.171875 161.835938 222.820312 161.691406 C 222.472656 161.546875 222.113281 161.4375 221.742188 161.363281 C 221.371094 161.289062 220.996094 161.253906 220.621094 161.25 Z M 149.949219 161.25 " fill-opacity="1" fill-rule="nonzero"/><path fill="#1e3a8a" d="M 185.242188 159.632812 L 223.167969 159.632812 C 226.613281 159.632812 228.320312 163.847656 225.859375 166.273438 L 208.917969 182.976562 L 187.933594 203.664062 C 187.578125 204.019531 187.164062 204.292969 186.699219 204.484375 C 186.230469 204.675781 185.746094 204.769531 185.242188 204.769531 C 184.738281 204.769531 184.253906 204.675781 183.789062 204.484375 C 183.324219 204.292969 182.910156 204.019531 182.550781 203.664062 L 161.566406 182.976562 L 144.628906 166.273438 C 142.164062 163.847656 143.871094 159.632812 147.320312 159.632812 Z M 185.242188 159.632812 " fill-opacity="1" fill-rule="nonzero"/><path fill="#059669" d="M 185.242188 206.375 C 184.527344 206.378906 183.839844 206.246094 183.175781 205.972656 C 182.511719 205.703125 181.925781 205.316406 181.417969 204.816406 L 143.492188 167.425781 C 143.105469 167.046875 142.78125 166.617188 142.519531 166.136719 C 142.257812 165.660156 142.074219 165.152344 141.964844 164.621094 C 141.855469 164.089844 141.824219 163.550781 141.875 163.007812 C 141.921875 162.46875 142.050781 161.945312 142.253906 161.441406 C 142.460938 160.9375 142.734375 160.472656 143.078125 160.050781 C 143.417969 159.628906 143.816406 159.265625 144.265625 158.960938 C 144.71875 158.65625 145.203125 158.421875 145.722656 158.261719 C 146.242188 158.101562 146.773438 158.019531 147.320312 158.015625 L 223.167969 158.015625 C 223.710938 158.019531 224.242188 158.101562 224.761719 158.261719 C 225.285156 158.421875 225.769531 158.65625 226.21875 158.960938 C 226.671875 159.265625 227.066406 159.628906 227.410156 160.050781 C 227.75 160.472656 228.027344 160.9375 228.230469 161.441406 C 228.433594 161.945312 228.5625 162.46875 228.613281 163.007812 C 228.660156 163.550781 228.632812 164.089844 228.523438 164.621094 C 228.410156 165.152344 228.226562 165.660156 227.964844 166.136719 C 227.707031 166.617188 227.382812 167.046875 226.996094 167.425781 L 189.070312 204.816406 C 188.558594 205.316406 187.972656 205.703125 187.3125 205.972656 C 186.648438 206.246094 185.957031 206.378906 185.242188 206.375 Z M 147.320312 161.25 C 146.863281 161.246094 146.449219 161.371094 146.074219 161.625 C 145.695312 161.882812 145.425781 162.21875 145.261719 162.644531 C 145.078125 163.070312 145.035156 163.507812 145.125 163.960938 C 145.21875 164.414062 145.429688 164.800781 145.761719 165.125 L 183.6875 202.511719 C 183.894531 202.71875 184.132812 202.878906 184.402344 202.988281 C 184.671875 203.101562 184.953125 203.15625 185.242188 203.15625 C 185.535156 203.15625 185.816406 203.101562 186.085938 202.988281 C 186.355469 202.878906 186.59375 202.71875 186.796875 202.511719 L 224.722656 165.125 C 225.054688 164.800781 225.269531 164.414062 225.359375 163.960938 C 225.453125 163.507812 225.410156 163.070312 225.226562 162.644531 C 225.0625 162.21875 224.789062 161.882812 224.414062 161.625 C 224.039062 161.371094 223.621094 161.246094 223.167969 161.25 Z M 147.320312 161.25 " fill-opacity="1" fill-rule="nonzero"/></svg>