<svg xmlns="http://www.w3.org/2000/svg" xmlns:xlink="http://www.w3.org/1999/xlink" width="500" zoomAndPan="magnify" viewBox="0 0 375 374.999991" height="500" preserveAspectRatio="xMidYMid meet" version="1.0"><defs><clipPath id="4af8c85ace"><path d="M 112.5 112.5 L 262.5 112.5 L 262.5 262.5 L 112.5 262.5 Z M 112.5 112.5 " clip-rule="nonzero"/></clipPath></defs><g clip-path="url(#4af8c85ace)"><path fill="#059669" d="M 187.5 112.5 C 146.085938 112.5 112.5 146.085938 112.5 187.5 C 112.5 228.914062 146.085938 262.5 187.5 262.5 C 228.914062 262.5 262.5 228.914062 262.5 187.5 C 262.5 146.085938 228.914062 112.5 187.5 112.5 Z M 232.617188 223.078125 C 231.28125 226.359375 224.25 234.539062 212.296875 234.375 C 199.6875 234.609375 176.390625 222.539062 162.773438 207.960938 C 149.085938 192.351562 139.992188 173.226562 140.671875 161.460938 C 141.375 149.132812 148.757812 144.023438 151.898438 142.382812 C 155.695312 140.414062 159.65625 140.0625 162.023438 141.515625 C 167.273438 144.773438 172.21875 166.898438 172.359375 169.59375 C 172.476562 171.234375 170.976562 173.601562 167.859375 176.929688 C 163.3125 181.734375 168.46875 187.453125 171.234375 191.625 C 176.109375 198.609375 182.789062 203.953125 190.195312 208.101562 C 192.726562 209.53125 195.890625 209.15625 198.070312 207.140625 C 201.398438 204.023438 203.765625 202.523438 205.382812 202.640625 C 208.101562 202.78125 230.226562 207.703125 233.484375 212.976562 C 234.9375 215.34375 234.585938 219.304688 232.617188 223.078125 Z M 232.617188 223.078125 " fill-opacity="1" fill-rule="nonzero"/></g></svg>