<svg xmlns="http://www.w3.org/2000/svg" xmlns:xlink="http://www.w3.org/1999/xlink" width="500" zoomAndPan="magnify" viewBox="0 0 375 374.999991" height="500" preserveAspectRatio="xMidYMid meet" version="1.0"><defs><clipPath id="20de048ce0"><path d="M 6.34375 3.171875 L 375 3.171875 L 375 372 L 6.34375 372 Z M 6.34375 3.171875 " clip-rule="nonzero"/></clipPath></defs><g clip-path="url(#20de048ce0)"><path fill="#059669" d="M 190.667969 3.171875 C 88.886719 3.171875 6.34375 85.714844 6.34375 187.496094 C 6.34375 289.277344 88.886719 371.820312 190.667969 371.820312 C 292.449219 371.820312 374.992188 289.277344 374.992188 187.496094 C 374.992188 85.714844 292.449219 3.171875 190.667969 3.171875 Z M 301.550781 274.933594 C 298.265625 283 280.984375 303.101562 251.609375 302.699219 C 220.621094 303.273438 163.363281 273.609375 129.898438 237.78125 C 96.257812 199.417969 73.910156 152.417969 75.578125 123.5 C 77.308594 93.203125 95.453125 80.644531 103.171875 76.613281 C 112.5 71.773438 122.238281 70.910156 128.054688 74.480469 C 140.957031 82.488281 153.109375 136.863281 153.457031 143.488281 C 153.746094 147.519531 150.058594 153.335938 142.398438 161.515625 C 131.222656 173.324219 143.894531 187.378906 150.691406 197.632812 C 162.671875 214.796875 179.089844 227.933594 197.292969 238.125 C 203.511719 241.640625 211.289062 240.71875 216.644531 235.765625 C 224.824219 228.105469 230.640625 224.417969 234.617188 224.707031 C 241.296875 225.050781 295.675781 237.148438 303.679688 250.109375 C 307.25 255.925781 306.386719 265.660156 301.550781 274.933594 Z M 301.550781 274.933594 " fill-opacity="1" fill-rule="nonzero"/></g></svg>